# xmcd CD database file
#
# Track frame offsets:
#	150
#	25557
#	45837
#	66172
#	81772
#	95287
#	115257
#	140652
#	158507
#	181415
#	202317
#	218295
#	222252
#	239420
#	260420
#
# Disc length: 3644 seconds
#
# Revision: 4
# Processed by: cddbd v1.5.2PL0 Copyright (c) Steve Scherf et al.
# Submitted via: CDex 1.51
#
DISCID=c80e3a0f
DTITLE=The Wildhearts - The Best of the Wildhearts [DISC1]
DYEAR=1997
DGENRE=Hard Rock
TTITLE0=Nothing Ever Changes But The Shoes
TTITLE1=T.V. Tan
TTITLE2=Greetings From Shitsville
TTITLE3=Dreaming In A
TTITLE4=Suckerpunch
TTITLE5=My Baby Is A Headfuck
TTITLE6=The Miles Away Girl
TTITLE7=Loveshit
TTITLE8=I Wanna Go Where The People Go
TTITLE9=Jonesing For Jones
TTITLE10=Just In Lust
TTITLE11=Baby Strange
TTITLE12=Nita Nitro
TTITLE13=Sick Of Drugs
TTITLE14=Red Light-Green Light
EXTD=YEAR: 1997
EXTT0=
EXTT1=
EXTT2=
EXTT3=
EXTT4=
EXTT5=
EXTT6=
EXTT7=
EXTT8=
EXTT9=
EXTT10=
EXTT11=
EXTT12=
EXTT13=
EXTT14=
PLAYORDER=
